<svg id="Layer_1" data-name="Layer 1" xmlns="http://www.w3.org/2000/svg" viewBox="0 0 104 104"><defs><style>.cls-1{fill:#fff;}.cls-2{fill:#e6e9e7;}</style></defs><title>ROI_thumb_grey</title><circle class="cls-1" cx="52" cy="52" r="52"/><path class="cls-2" d="M62.37,43.67c2.76,0,5.15,0,7.53,0a12.52,12.52,0,0,1,2.87.35,6.24,6.24,0,0,1,4.1,6.69c-.25,1.13-.78,2.19-1.11,3.3a3.64,3.64,0,0,0-.13,1.5A10.58,10.58,0,0,1,75,60.39a6.48,6.48,0,0,0-.46,2.32,7.9,7.9,0,0,1-1.28,4.93,4.35,4.35,0,0,0-.67,2.14,6.45,6.45,0,0,1-5,6.39,19.54,19.54,0,0,1-8.87.26,81.19,81.19,0,0,1-12.06-3.5,26.73,26.73,0,0,0-2.8-.72,1.8,1.8,0,0,1-1.55-1.86q0-10.23,0-20.44a2.23,2.23,0,0,1,1.56-2.06,3.38,3.38,0,0,0,2.26-1.47c2.17-2.72,4.25-5.5,6.51-8.14a9.33,9.33,0,0,0,2.06-5.31,10.47,10.47,0,0,1,1.61-4.5c.75-1.18,1.31-1.28,2.74-1.17a7.5,7.5,0,0,1,3.49,1.22c1.73,1.09,2.16,2.88,2.37,4.7a13.85,13.85,0,0,1,0,4.36A27.88,27.88,0,0,1,63.15,42C63,42.48,62.72,42.93,62.37,43.67Z"/><path class="cls-2" d="M38.66,72H30.19L29.91,72c-1.89,0-2.41-.42-2.42-2.31q0-9.9,0-19.8a2.09,2.09,0,0,1,2.36-2.27h8.38c1.37,0,2.08.73,2.18,2.17l.06.33c0,3,.09,6.07.11,9.11,0,3.23.05,6.47,0,9.7a7.71,7.71,0,0,1-.66,2.51c-.11.27-.62.38-1,.56Z"/></svg>